<svg xmlns="http://www.w3.org/2000/svg" width="800" height="480" viewBox="0 0 800 480">
  <defs>
    <style>
      text { font-family: 'JetBrains Mono', 'Courier New', monospace; }
    </style>
  </defs>

  <!-- Background -->
  <rect width="800" height="480" fill="#0F1117"/>

  <!-- Top bar -->
  <rect width="800" height="48" fill="#161B27"/>
  <text x="20" y="30" fill="#00D4AA" font-size="13" font-weight="700">IRONFORGE — LIVE DB OPERATIONS</text>
  <text x="20" y="43" fill="#4A5568" font-size="10">Python · Flask · SQLite · REST API</text>
  <circle cx="760" cy="24" r="6" fill="#00D4AA" opacity="0.3"/>
  <circle cx="760" cy="24" r="3" fill="#00D4AA"/>
  <text x="720" y="29" fill="#00D4AA" font-size="10">LIVE</text>

  <!-- KPI cards row -->
  <rect x="20" y="68" width="170" height="90" rx="6" fill="#161B27" stroke="#1E2535" stroke-width="1"/>
  <text x="36" y="90" fill="#4A5568" font-size="10">ENDPOINTS</text>
  <text x="36" y="125" fill="#F8F8F8" font-size="32" font-weight="700">15</text>
  <text x="36" y="148" fill="#00D4AA" font-size="10">REST routes</text>

  <rect x="205" y="68" width="170" height="90" rx="6" fill="#161B27" stroke="#1E2535" stroke-width="1"/>
  <text x="221" y="90" fill="#4A5568" font-size="10">REQ / SESSION</text>
  <text x="221" y="125" fill="#00D4AA" font-size="32" font-weight="700">200+</text>
  <text x="221" y="148" fill="#4A5568" font-size="10">avg writes per run</text>

  <rect x="390" y="68" width="170" height="90" rx="6" fill="#161B27" stroke="#1E2535" stroke-width="1"/>
  <text x="406" y="90" fill="#4A5568" font-size="10">DATA LOSS INCIDENTS</text>
  <text x="406" y="125" fill="#F8F8F8" font-size="32" font-weight="700">0</text>
  <text x="406" y="148" fill="#00D4AA" font-size="10">snapshot isolation</text>

  <rect x="575" y="68" width="205" height="90" rx="6" fill="#161B27" stroke="#1E2535" stroke-width="1"/>
  <text x="591" y="90" fill="#4A5568" font-size="10">DASHBOARDS</text>
  <text x="591" y="125" fill="#F8F8F8" font-size="32" font-weight="700">4</text>
  <text x="591" y="148" fill="#00D4AA" font-size="10">mod · strategy · save · hub</text>

  <!-- Endpoints panel -->
  <rect x="20" y="178" width="380" height="280" rx="6" fill="#161B27" stroke="#1E2535" stroke-width="1"/>
  <text x="36" y="200" fill="#8892A4" font-size="11" font-weight="600">API ENDPOINTS</text>
  <line x1="36" y1="208" x2="380" y2="208" stroke="#1E2535" stroke-width="1"/>

  <!-- endpoint rows -->
  <rect x="36" y="216" width="34" height="14" rx="2" fill="#00D4AA" opacity="0.15"/>
  <text x="41" y="227" fill="#00D4AA" font-size="9">GET</text>
  <text x="80" y="227" fill="#C8D0DC" font-size="10">/api/status</text>
  <text x="310" y="227" fill="#4A5568" font-size="9">2ms  200</text>

  <rect x="36" y="236" width="34" height="14" rx="2" fill="#00D4AA" opacity="0.15"/>
  <text x="41" y="247" fill="#00D4AA" font-size="9">GET</text>
  <text x="80" y="247" fill="#C8D0DC" font-size="10">/api/records</text>
  <text x="310" y="247" fill="#4A5568" font-size="9">12ms  200</text>

  <rect x="36" y="256" width="34" height="14" rx="2" fill="#F59E0B" opacity="0.15"/>
  <text x="39" y="267" fill="#F59E0B" font-size="9">POST</text>
  <text x="80" y="267" fill="#C8D0DC" font-size="10">/api/records/:id</text>
  <text x="310" y="267" fill="#4A5568" font-size="9">8ms  200</text>

  <rect x="36" y="276" width="34" height="14" rx="2" fill="#00D4AA" opacity="0.15"/>
  <text x="41" y="287" fill="#00D4AA" font-size="9">GET</text>
  <text x="80" y="287" fill="#C8D0DC" font-size="10">/api/schema</text>
  <text x="310" y="287" fill="#4A5568" font-size="9">3ms  200</text>

  <rect x="36" y="296" width="34" height="14" rx="2" fill="#F59E0B" opacity="0.15"/>
  <text x="39" y="307" fill="#F59E0B" font-size="9">POST</text>
  <text x="80" y="307" fill="#C8D0DC" font-size="10">/api/snapshot</text>
  <text x="310" y="307" fill="#4A5568" font-size="9">45ms  201</text>

  <rect x="36" y="316" width="34" height="14" rx="2" fill="#00D4AA" opacity="0.15"/>
  <text x="41" y="327" fill="#00D4AA" font-size="9">GET</text>
  <text x="80" y="327" fill="#C8D0DC" font-size="10">/api/analytics/best</text>
  <text x="310" y="327" fill="#4A5568" font-size="9">18ms  200</text>

  <rect x="36" y="336" width="34" height="14" rx="2" fill="#F59E0B" opacity="0.15"/>
  <text x="39" y="347" fill="#F59E0B" font-size="9">POST</text>
  <text x="80" y="347" fill="#C8D0DC" font-size="10">/api/batch</text>
  <text x="310" y="347" fill="#4A5568" font-size="9">62ms  200</text>

  <text x="36" y="382" fill="#4A5568" font-size="10">+ 8 more routes</text>

  <!-- Request log panel -->
  <rect x="415" y="178" width="365" height="280" rx="6" fill="#161B27" stroke="#1E2535" stroke-width="1"/>
  <text x="431" y="200" fill="#8892A4" font-size="11" font-weight="600">LIVE REQUEST LOG</text>
  <line x1="431" y1="208" x2="765" y2="208" stroke="#1E2535" stroke-width="1"/>

  <!-- log entries -->
  <text x="431" y="227" fill="#4A5568" font-size="9">14:02:31</text>
  <text x="490" y="227" fill="#F59E0B" font-size="9">POST</text>
  <text x="530" y="227" fill="#C8D0DC" font-size="10">/api/records/47</text>
  <rect x="680" y="217" width="60" height="14" rx="2" fill="#00D4AA" opacity="0.1"/>
  <text x="686" y="228" fill="#00D4AA" font-size="9">MODIFIED</text>

  <text x="431" y="247" fill="#4A5568" font-size="9">14:02:28</text>
  <text x="490" y="247" fill="#00D4AA" font-size="9">GET</text>
  <text x="530" y="247" fill="#C8D0DC" font-size="10">/api/schema</text>
  <rect x="680" y="237" width="46" height="14" rx="2" fill="#4A5568" opacity="0.2"/>
  <text x="686" y="248" fill="#8892A4" font-size="9">CACHED</text>

  <text x="431" y="267" fill="#4A5568" font-size="9">14:02:15</text>
  <text x="490" y="267" fill="#F59E0B" font-size="9">POST</text>
  <text x="530" y="267" fill="#C8D0DC" font-size="10">/api/snapshot</text>
  <rect x="680" y="257" width="72" height="14" rx="2" fill="#F59E0B" opacity="0.1"/>
  <text x="686" y="268" fill="#F59E0B" font-size="9">SNAP_OK</text>

  <text x="431" y="287" fill="#4A5568" font-size="9">14:01:59</text>
  <text x="490" y="287" fill="#00D4AA" font-size="9">GET</text>
  <text x="530" y="287" fill="#C8D0DC" font-size="10">/api/status</text>
  <rect x="680" y="277" width="46" height="14" rx="2" fill="#00D4AA" opacity="0.1"/>
  <text x="690" y="288" fill="#00D4AA" font-size="9">OK</text>

  <text x="431" y="307" fill="#4A5568" font-size="9">14:01:44</text>
  <text x="490" y="307" fill="#F59E0B" font-size="9">POST</text>
  <text x="530" y="307" fill="#C8D0DC" font-size="10">/api/batch</text>
  <rect x="680" y="297" width="60" height="14" rx="2" fill="#00D4AA" opacity="0.1"/>
  <text x="686" y="308" fill="#00D4AA" font-size="9">12 rows</text>

  <text x="431" y="327" fill="#4A5568" font-size="9">14:01:31</text>
  <text x="490" y="327" fill="#00D4AA" font-size="9">GET</text>
  <text x="530" y="327" fill="#C8D0DC" font-size="10">/api/analytics/best</text>
  <rect x="680" y="317" width="60" height="14" rx="2" fill="#00D4AA" opacity="0.1"/>
  <text x="686" y="328" fill="#00D4AA" font-size="9">8 results</text>

  <text x="431" y="347" fill="#4A5568" font-size="9">14:01:18</text>
  <text x="490" y="347" fill="#00D4AA" font-size="9">GET</text>
  <text x="530" y="347" fill="#C8D0DC" font-size="10">/api/records</text>
  <rect x="680" y="337" width="60" height="14" rx="2" fill="#4A5568" opacity="0.2"/>
  <text x="686" y="348" fill="#8892A4" font-size="9">47 rows</text>

  <!-- DB connection status bar -->
  <rect x="415" y="420" width="365" height="28" rx="4" fill="#0A0D14" stroke="#1E2535" stroke-width="1"/>
  <circle cx="432" cy="434" r="5" fill="#00D4AA" opacity="0.4"/>
  <circle cx="432" cy="434" r="3" fill="#00D4AA"/>
  <text x="444" y="438" fill="#4A5568" font-size="9">SQLite connected · timeout 30s · busy_timeout 30000ms · PRAGMA WAL</text>

  <!-- Footer -->
  <rect x="0" y="462" width="800" height="18" fill="#0A0D14"/>
  <text x="20" y="474" fill="#2D3748" font-size="9">IronForge · Python 3 · Flask · SQLite3 · CORS enabled · vmittestainer.dev</text>
</svg>
