<svg xmlns="http://www.w3.org/2000/svg" width="800" height="480" viewBox="0 0 800 480">
  <defs>
    <style>
      text { font-family: 'JetBrains Mono', 'Courier New', monospace; }
    </style>
  </defs>

  <!-- Background -->
  <rect width="800" height="480" fill="#0F1117"/>

  <!-- Top bar -->
  <rect width="800" height="48" fill="#161B27"/>
  <text x="20" y="30" fill="#00D4AA" font-size="13" font-weight="700">SCHOOL ANALYTICS DASHBOARD</text>
  <text x="20" y="43" fill="#4A5568" font-size="10">SQL · Power BI · EMEF/EJA Maria de Fátima Faria Área — Campinas-SP</text>
  <rect x="665" y="14" width="115" height="20" rx="3" fill="#F59E0B" opacity="0.1" stroke="#F59E0B" stroke-width="0.5"/>
  <text x="680" y="28" fill="#F59E0B" font-size="10">ODS 4 · ODS 10</text>

  <!-- KPI row -->
  <rect x="20" y="68" width="168" height="80" rx="6" fill="#161B27" stroke="#1E2535" stroke-width="1"/>
  <text x="36" y="88" fill="#4A5568" font-size="10">KPIs MAPEADOS</text>
  <text x="36" y="120" fill="#F8F8F8" font-size="32" font-weight="700">6</text>
  <text x="36" y="138" fill="#4A5568" font-size="10">indicadores pedagógicos</text>

  <rect x="202" y="68" width="168" height="80" rx="6" fill="#161B27" stroke="#1E2535" stroke-width="1"/>
  <text x="218" y="88" fill="#4A5568" font-size="10">DOCENTES ENTREVISTADOS</text>
  <text x="218" y="120" fill="#00D4AA" font-size="32" font-weight="700">8</text>
  <text x="218" y="138" fill="#4A5568" font-size="10">prof + coordenação</text>

  <rect x="384" y="68" width="168" height="80" rx="6" fill="#161B27" stroke="#1E2535" stroke-width="1"/>
  <text x="400" y="88" fill="#4A5568" font-size="10">TURMAS COBERTAS</text>
  <text x="400" y="120" fill="#F8F8F8" font-size="32" font-weight="700">12</text>
  <text x="400" y="138" fill="#4A5568" font-size="10">EF + EJA</text>

  <rect x="566" y="68" width="214" height="80" rx="6" fill="#161B27" stroke="#1E2535" stroke-width="1"/>
  <text x="582" y="88" fill="#4A5568" font-size="10">ALUNOS BENEFICIADOS</text>
  <text x="582" y="120" fill="#F8F8F8" font-size="32" font-weight="700">~340</text>
  <text x="582" y="138" fill="#4A5568" font-size="10">acesso indirect a dados</text>

  <!-- Main panels -->
  <!-- Left: Indicators -->
  <rect x="20" y="168" width="370" height="290" rx="6" fill="#161B27" stroke="#1E2535" stroke-width="1"/>
  <text x="36" y="190" fill="#8892A4" font-size="11" font-weight="600">KPIs PEDAGÓGICOS — VISÃO GERAL</text>

  <!-- Indicator bars -->
  <text x="36" y="215" fill="#C8D0DC" font-size="10">Taxa de Aprovação</text>
  <rect x="36" y="220" width="310" height="12" rx="3" fill="#1E2535"/>
  <rect x="36" y="220" width="242" height="12" rx="3" fill="#00D4AA" opacity="0.7"/>
  <text x="350" y="231" fill="#00D4AA" font-size="10" text-anchor="end">78%</text>

  <text x="36" y="250" fill="#C8D0DC" font-size="10">Frequência Média</text>
  <rect x="36" y="255" width="310" height="12" rx="3" fill="#1E2535"/>
  <rect x="36" y="255" width="270" height="12" rx="3" fill="#00D4AA" opacity="0.7"/>
  <text x="350" y="266" fill="#00D4AA" font-size="10" text-anchor="end">87%</text>

  <text x="36" y="285" fill="#C8D0DC" font-size="10">Taxa de Retenção (EJA)</text>
  <rect x="36" y="290" width="310" height="12" rx="3" fill="#1E2535"/>
  <rect x="36" y="290" width="186" height="12" rx="3" fill="#F59E0B" opacity="0.7"/>
  <text x="350" y="301" fill="#F59E0B" font-size="10" text-anchor="end">60%</text>

  <text x="36" y="320" fill="#C8D0DC" font-size="10">Nota Média Geral</text>
  <rect x="36" y="325" width="310" height="12" rx="3" fill="#1E2535"/>
  <rect x="36" y="325" width="229" height="12" rx="3" fill="#00D4AA" opacity="0.7"/>
  <text x="350" y="336" fill="#00D4AA" font-size="10" text-anchor="end">74%</text>

  <text x="36" y="355" fill="#C8D0DC" font-size="10">Indicadores Comportamentais</text>
  <rect x="36" y="360" width="310" height="12" rx="3" fill="#1E2535"/>
  <rect x="36" y="360" width="279" height="12" rx="3" fill="#00D4AA" opacity="0.6"/>
  <text x="350" y="371" fill="#00D4AA" font-size="10" text-anchor="end">90%</text>

  <text x="36" y="390" fill="#C8D0DC" font-size="10">Evolução Bimestral</text>
  <rect x="36" y="395" width="310" height="12" rx="3" fill="#1E2535"/>
  <rect x="36" y="395" width="217" height="12" rx="3" fill="#00D4AA" opacity="0.7"/>
  <text x="350" y="406" fill="#00D4AA" font-size="10" text-anchor="end">70%</text>

  <text x="36" y="435" fill="#2D3748" font-size="9">Dados fictícios para ilustração · proposta conceitual Extensionista I</text>

  <!-- Right: by turma -->
  <rect x="404" y="168" width="376" height="290" rx="6" fill="#161B27" stroke="#1E2535" stroke-width="1"/>
  <text x="420" y="190" fill="#8892A4" font-size="11" font-weight="600">APROVAÇÃO POR TURMA</text>

  <!-- Bar chart horizontal -->
  <text x="420" y="215" fill="#4A5568" font-size="10">TURMA</text>
  <text x="680" y="215" fill="#4A5568" font-size="10">APROV %</text>

  <text x="420" y="238" fill="#C8D0DC" font-size="10">EF — 9°A</text>
  <rect x="490" y="228" width="165" height="14" rx="2" fill="#00D4AA" opacity="0.7"/>
  <text x="660" y="239" fill="#C8D0DC" font-size="10">  87%</text>

  <text x="420" y="262" fill="#C8D0DC" font-size="10">EF — 9°B</text>
  <rect x="490" y="252" width="152" height="14" rx="2" fill="#00D4AA" opacity="0.65"/>
  <text x="660" y="263" fill="#C8D0DC" font-size="10">  80%</text>

  <text x="420" y="286" fill="#C8D0DC" font-size="10">EF — 8°A</text>
  <rect x="490" y="276" width="140" height="14" rx="2" fill="#00D4AA" opacity="0.6"/>
  <text x="660" y="287" fill="#C8D0DC" font-size="10">  74%</text>

  <text x="420" y="310" fill="#C8D0DC" font-size="10">EF — 8°B</text>
  <rect x="490" y="300" width="133" height="14" rx="2" fill="#00D4AA" opacity="0.55"/>
  <text x="660" y="311" fill="#C8D0DC" font-size="10">  70%</text>

  <text x="420" y="334" fill="#C8D0DC" font-size="10">EJA — T1</text>
  <rect x="490" y="324" width="114" height="14" rx="2" fill="#F59E0B" opacity="0.65"/>
  <text x="660" y="335" fill="#F59E0B" font-size="10">  60%</text>

  <text x="420" y="358" fill="#C8D0DC" font-size="10">EJA — T2</text>
  <rect x="490" y="348" width="106" height="14" rx="2" fill="#F59E0B" opacity="0.6"/>
  <text x="660" y="359" fill="#F59E0B" font-size="10">  56%</text>

  <text x="420" y="382" fill="#C8D0DC" font-size="10">EF — 7°A</text>
  <rect x="490" y="372" width="160" height="14" rx="2" fill="#00D4AA" opacity="0.7"/>
  <text x="660" y="383" fill="#C8D0DC" font-size="10">  84%</text>

  <text x="420" y="406" fill="#C8D0DC" font-size="10">EF — 7°B</text>
  <rect x="490" y="396" width="146" height="14" rx="2" fill="#00D4AA" opacity="0.62"/>
  <text x="660" y="407" fill="#C8D0DC" font-size="10">  77%</text>

  <text x="420" y="435" fill="#2D3748" font-size="9">+ 4 turmas · dados fictícios</text>

  <!-- Footer -->
  <rect x="0" y="462" width="800" height="18" fill="#0A0D14"/>
  <text x="20" y="474" fill="#2D3748" font-size="9">Proposta conceitual — Atividade Extensionista I · Uninter ADS · vmittestainer.dev</text>
</svg>
