<svg xmlns="http://www.w3.org/2000/svg" width="800" height="480" viewBox="0 0 800 480">
  <defs>
    <style>
      text { font-family: 'JetBrains Mono', 'Courier New', monospace; }
    </style>
  </defs>

  <!-- Background -->
  <rect width="800" height="480" fill="#0F1117"/>

  <!-- Top bar -->
  <rect width="800" height="48" fill="#161B27"/>
  <text x="20" y="30" fill="#00D4AA" font-size="13" font-weight="700">BACKUP MONITORING</text>
  <text x="20" y="43" fill="#4A5568" font-size="10">Power BI · Zabbix · Oct 2024 – Present</text>
  <circle cx="760" cy="24" r="6" fill="#00D4AA" opacity="0.3"/>
  <circle cx="760" cy="24" r="3" fill="#00D4AA"/>
  <text x="720" y="29" fill="#00D4AA" font-size="10">LIVE</text>

  <!-- KPI cards row -->
  <!-- Card 1: Total Environments -->
  <rect x="20" y="68" width="170" height="90" rx="6" fill="#161B27" stroke="#1E2535" stroke-width="1"/>
  <text x="36" y="90" fill="#4A5568" font-size="10">ENVIRONMENTS</text>
  <text x="36" y="125" fill="#F8F8F8" font-size="32" font-weight="700">47</text>
  <text x="36" y="148" fill="#00D4AA" font-size="10">▲ +3 this month</text>

  <!-- Card 2: Success Rate -->
  <rect x="205" y="68" width="170" height="90" rx="6" fill="#161B27" stroke="#1E2535" stroke-width="1"/>
  <text x="221" y="90" fill="#4A5568" font-size="10">SUCCESS RATE</text>
  <text x="221" y="125" fill="#00D4AA" font-size="32" font-weight="700">99.8%</text>
  <text x="221" y="148" fill="#4A5568" font-size="10">last 30 days</text>

  <!-- Card 3: Incidents -->
  <rect x="390" y="68" width="170" height="90" rx="6" fill="#161B27" stroke="#1E2535" stroke-width="1"/>
  <text x="406" y="90" fill="#4A5568" font-size="10">UNDETECTED INCIDENTS</text>
  <text x="406" y="125" fill="#F8F8F8" font-size="32" font-weight="700">0</text>
  <text x="406" y="148" fill="#00D4AA" font-size="10">6-month streak</text>

  <!-- Card 4: Avg Response -->
  <rect x="575" y="68" width="205" height="90" rx="6" fill="#161B27" stroke="#1E2535" stroke-width="1"/>
  <text x="591" y="90" fill="#4A5568" font-size="10">ALERT RESPONSE TIME</text>
  <text x="591" y="125" fill="#F8F8F8" font-size="32" font-weight="700">4.2<tspan font-size="16" fill="#4A5568">min</tspan></text>
  <text x="591" y="148" fill="#00D4AA" font-size="10">▼ -62% vs manual</text>

  <!-- Status grid -->
  <rect x="20" y="178" width="460" height="280" rx="6" fill="#161B27" stroke="#1E2535" stroke-width="1"/>
  <text x="36" y="200" fill="#8892A4" font-size="11" font-weight="600">ENVIRONMENT STATUS</text>

  <!-- Grid header -->
  <text x="36" y="225" fill="#4A5568" font-size="10">ENVIRONMENT</text>
  <text x="240" y="225" fill="#4A5568" font-size="10">LAST BACKUP</text>
  <text x="360" y="225" fill="#4A5568" font-size="10">STATUS</text>
  <line x1="36" y1="232" x2="460" y2="232" stroke="#1E2535" stroke-width="1"/>

  <!-- Row data -->
  <text x="36" y="250" fill="#C8D0DC" font-size="11">CLIENT-ENV-001</text>
  <text x="240" y="250" fill="#C8D0DC" font-size="11">2h 14min ago</text>
  <rect x="360" y="240" width="52" height="16" rx="3" fill="#00D4AA" opacity="0.15"/>
  <text x="368" y="252" fill="#00D4AA" font-size="10">SUCCESS</text>

  <text x="36" y="272" fill="#C8D0DC" font-size="11">CLIENT-ENV-002</text>
  <text x="240" y="272" fill="#C8D0DC" font-size="11">3h 01min ago</text>
  <rect x="360" y="262" width="52" height="16" rx="3" fill="#00D4AA" opacity="0.15"/>
  <text x="368" y="274" fill="#00D4AA" font-size="10">SUCCESS</text>

  <text x="36" y="294" fill="#C8D0DC" font-size="11">CLIENT-ENV-003</text>
  <text x="240" y="294" fill="#C8D0DC" font-size="11">1h 47min ago</text>
  <rect x="360" y="284" width="52" height="16" rx="3" fill="#00D4AA" opacity="0.15"/>
  <text x="368" y="296" fill="#00D4AA" font-size="10">SUCCESS</text>

  <text x="36" y="316" fill="#C8D0DC" font-size="11">CLIENT-ENV-004</text>
  <text x="240" y="316" fill="#C8D0DC" font-size="11">4h 33min ago</text>
  <rect x="360" y="306" width="44" height="16" rx="3" fill="#F59E0B" opacity="0.15"/>
  <text x="368" y="318" fill="#F59E0B" font-size="10">WARNING</text>

  <text x="36" y="338" fill="#C8D0DC" font-size="11">CLIENT-ENV-005</text>
  <text x="240" y="338" fill="#C8D0DC" font-size="11">2h 58min ago</text>
  <rect x="360" y="328" width="52" height="16" rx="3" fill="#00D4AA" opacity="0.15"/>
  <text x="368" y="340" fill="#00D4AA" font-size="10">SUCCESS</text>

  <text x="36" y="360" fill="#C8D0DC" font-size="11">CLIENT-ENV-006</text>
  <text x="240" y="360" fill="#C8D0DC" font-size="11">1h 22min ago</text>
  <rect x="360" y="350" width="52" height="16" rx="3" fill="#00D4AA" opacity="0.15"/>
  <text x="368" y="362" fill="#00D4AA" font-size="10">SUCCESS</text>

  <text x="36" y="382" fill="#4A5568" font-size="10">+ 41 more environments</text>

  <!-- Weekly trend chart -->
  <rect x="495" y="178" width="285" height="280" rx="6" fill="#161B27" stroke="#1E2535" stroke-width="1"/>
  <text x="511" y="200" fill="#8892A4" font-size="11" font-weight="600">WEEKLY TREND — SUCCESS %</text>

  <!-- Chart area -->
  <line x1="520" y1="390" x2="760" y2="390" stroke="#1E2535" stroke-width="1"/>
  <line x1="520" y1="360" x2="760" y2="360" stroke="#1E2535" stroke-width="0.5" stroke-dasharray="3,3"/>
  <line x1="520" y1="330" x2="760" y2="330" stroke="#1E2535" stroke-width="0.5" stroke-dasharray="3,3"/>
  <line x1="520" y1="300" x2="760" y2="300" stroke="#1E2535" stroke-width="0.5" stroke-dasharray="3,3"/>
  <line x1="520" y1="270" x2="760" y2="270" stroke="#1E2535" stroke-width="0.5" stroke-dasharray="3,3"/>
  <line x1="520" y1="240" x2="760" y2="240" stroke="#1E2535" stroke-width="0.5" stroke-dasharray="3,3"/>

  <text x="505" y="393" fill="#4A5568" font-size="9" text-anchor="end">0%</text>
  <text x="505" y="333" fill="#4A5568" font-size="9" text-anchor="end">50%</text>
  <text x="505" y="243" fill="#4A5568" font-size="9" text-anchor="end">100%</text>

  <!-- Bars (weekly) -->
  <rect x="528" y="244" width="24" height="146" rx="2" fill="#00D4AA" opacity="0.7"/>
  <rect x="562" y="242" width="24" height="148" rx="2" fill="#00D4AA" opacity="0.7"/>
  <rect x="596" y="248" width="24" height="142" rx="2" fill="#00D4AA" opacity="0.7"/>
  <rect x="630" y="244" width="24" height="146" rx="2" fill="#00D4AA" opacity="0.7"/>
  <rect x="664" y="362" width="24" height="28" rx="2" fill="#F59E0B" opacity="0.8"/>
  <rect x="664" y="244" width="24" height="118" rx="2" fill="#00D4AA" opacity="0.7"/>
  <rect x="698" y="242" width="24" height="148" rx="2" fill="#00D4AA" opacity="0.9"/>
  <rect x="732" y="241" width="24" height="149" rx="2" fill="#00D4AA"/>

  <text x="540" y="404" fill="#4A5568" font-size="9" text-anchor="middle">W1</text>
  <text x="574" y="404" fill="#4A5568" font-size="9" text-anchor="middle">W2</text>
  <text x="608" y="404" fill="#4A5568" font-size="9" text-anchor="middle">W3</text>
  <text x="642" y="404" fill="#4A5568" font-size="9" text-anchor="middle">W4</text>
  <text x="676" y="404" fill="#4A5568" font-size="9" text-anchor="middle">W5</text>
  <text x="710" y="404" fill="#4A5568" font-size="9" text-anchor="middle">W6</text>
  <text x="744" y="404" fill="#4A5568" font-size="9" text-anchor="middle">W7</text>

  <!-- Footer -->
  <rect x="0" y="462" width="800" height="18" fill="#0A0D14"/>
  <text x="20" y="474" fill="#2D3748" font-size="9">Data source: Zabbix API · Refreshed every 15min · vmittestainer.dev</text>
</svg>
